<mxfile host="65bd71144e">
    <diagram name="Page-1" id="13e1069c-82ec-6db2-03f1-153e76fe0fe0">
        <mxGraphModel dx="1474" dy="800" grid="1" gridSize="10" guides="1" tooltips="1" connect="1" arrows="1" fold="1" page="1" pageScale="1" pageWidth="1100" pageHeight="850" background="none" math="0" shadow="0">
            <root>
                <mxCell id="0"/>
                <mxCell id="1" parent="0"/>
                <mxCell id="7baba1c4bc27f4b0-2" value="LenderActions" style="shape=umlLifeline;perimeter=lifelinePerimeter;whiteSpace=wrap;html=1;container=1;collapsible=0;recursiveResize=0;outlineConnect=0;rounded=1;shadow=0;comic=0;labelBackgroundColor=none;strokeWidth=1;fontFamily=Verdana;fontSize=12;align=center;" parent="1" vertex="1">
                    <mxGeometry x="276" y="80" width="100" height="750" as="geometry"/>
                </mxCell>
                <mxCell id="7baba1c4bc27f4b0-10" value="" style="html=1;points=[];perimeter=orthogonalPerimeter;rounded=0;shadow=0;comic=0;labelBackgroundColor=none;strokeWidth=1;fontFamily=Verdana;fontSize=12;align=center;" parent="7baba1c4bc27f4b0-2" vertex="1">
                    <mxGeometry x="45" y="200" width="10" height="320" as="geometry"/>
                </mxCell>
                <mxCell id="7baba1c4bc27f4b0-3" value="PoolCommons" style="shape=umlLifeline;perimeter=lifelinePerimeter;whiteSpace=wrap;html=1;container=1;collapsible=0;recursiveResize=0;outlineConnect=0;rounded=1;shadow=0;comic=0;labelBackgroundColor=none;strokeWidth=1;fontFamily=Verdana;fontSize=12;align=center;" parent="1" vertex="1">
                    <mxGeometry x="450" y="80" width="100" height="750" as="geometry"/>
                </mxCell>
                <mxCell id="4Fi33i3VNf01kXt7bkc9-4" value="" style="html=1;points=[];perimeter=orthogonalPerimeter;rounded=0;shadow=0;comic=0;labelBackgroundColor=none;strokeWidth=1;fontFamily=Verdana;fontSize=12;align=center;" parent="7baba1c4bc27f4b0-3" vertex="1">
                    <mxGeometry x="45" y="60" width="10" height="120" as="geometry"/>
                </mxCell>
                <mxCell id="4Fi33i3VNf01kXt7bkc9-36" value="" style="html=1;points=[];perimeter=orthogonalPerimeter;rounded=0;shadow=0;comic=0;labelBackgroundColor=none;strokeWidth=1;fontFamily=Verdana;fontSize=12;align=center;" parent="7baba1c4bc27f4b0-3" vertex="1">
                    <mxGeometry x="45" y="550" width="10" height="120" as="geometry"/>
                </mxCell>
                <mxCell id="4Fi33i3VNf01kXt7bkc9-28" value="&lt;div&gt;reverts on&lt;/div&gt;&lt;div&gt;InvalidIndex()&lt;/div&gt;&lt;div&gt;BucketBankruptcyBlock()&lt;br&gt;&lt;/div&gt;" style="shape=note;whiteSpace=wrap;html=1;size=14;verticalAlign=top;align=left;spacingTop=-6;rounded=0;shadow=0;comic=0;labelBackgroundColor=none;strokeWidth=1;fontFamily=Verdana;fontSize=10;" parent="7baba1c4bc27f4b0-3" vertex="1">
                    <mxGeometry x="-110" y="200" width="145" height="50" as="geometry"/>
                </mxCell>
                <mxCell id="7baba1c4bc27f4b0-4" value="&lt;font&gt;Deposits&lt;/font&gt;" style="shape=umlLifeline;perimeter=lifelinePerimeter;whiteSpace=wrap;html=1;container=1;collapsible=0;recursiveResize=0;outlineConnect=0;rounded=1;shadow=0;comic=0;labelBackgroundColor=none;strokeWidth=1;fontFamily=Verdana;fontSize=12;align=center;" parent="1" vertex="1">
                    <mxGeometry x="620" y="80" width="100" height="680" as="geometry"/>
                </mxCell>
                <mxCell id="4Fi33i3VNf01kXt7bkc9-14" value="" style="html=1;points=[];perimeter=orthogonalPerimeter;rounded=0;shadow=0;comic=0;labelBackgroundColor=none;strokeWidth=1;fontFamily=Verdana;fontSize=12;align=center;" parent="7baba1c4bc27f4b0-4" vertex="1">
                    <mxGeometry x="45" y="80" width="10" height="60" as="geometry"/>
                </mxCell>
                <mxCell id="4Fi33i3VNf01kXt7bkc9-25" value="" style="html=1;points=[];perimeter=orthogonalPerimeter;rounded=0;shadow=0;comic=0;labelBackgroundColor=none;strokeWidth=1;fontFamily=Verdana;fontSize=12;align=center;" parent="7baba1c4bc27f4b0-4" vertex="1">
                    <mxGeometry x="45" y="306" width="10" height="78" as="geometry"/>
                </mxCell>
                <mxCell id="7baba1c4bc27f4b0-8" value="Pool" style="shape=umlLifeline;perimeter=lifelinePerimeter;whiteSpace=wrap;html=1;container=1;collapsible=0;recursiveResize=0;outlineConnect=0;rounded=1;shadow=0;comic=0;labelBackgroundColor=none;strokeWidth=1;fontFamily=Verdana;fontSize=12;align=center;" parent="1" vertex="1">
                    <mxGeometry x="100" y="80" width="100" height="750" as="geometry"/>
                </mxCell>
                <mxCell id="7baba1c4bc27f4b0-9" value="" style="html=1;points=[];perimeter=orthogonalPerimeter;rounded=0;shadow=0;comic=0;labelBackgroundColor=none;strokeWidth=1;fontFamily=Verdana;fontSize=12;align=center;" parent="7baba1c4bc27f4b0-8" vertex="1">
                    <mxGeometry x="45" y="60" width="10" height="690" as="geometry"/>
                </mxCell>
                <mxCell id="7baba1c4bc27f4b0-40" value="&lt;font style=&quot;font-size: 10px;&quot; face=&quot;Tahoma&quot;&gt;Similar for both ERC20 and ERC721 pools&lt;br style=&quot;font-size: 10px;&quot;&gt;&lt;/font&gt;" style="shape=note;whiteSpace=wrap;html=1;size=14;verticalAlign=top;align=left;spacingTop=-6;rounded=0;shadow=0;comic=0;labelBackgroundColor=none;strokeWidth=1;fontFamily=Verdana;fontSize=10;" parent="1" vertex="1">
                    <mxGeometry x="100" y="20" width="100" height="45" as="geometry"/>
                </mxCell>
                <mxCell id="7baba1c4bc27f4b0-41" value="&lt;font style=&quot;font-size: 10px;&quot; face=&quot;Tahoma&quot;&gt;External library&lt;br&gt;&lt;/font&gt;" style="shape=note;whiteSpace=wrap;html=1;size=14;verticalAlign=top;align=left;spacingTop=-6;rounded=0;shadow=0;comic=0;labelBackgroundColor=none;strokeWidth=1;fontFamily=Verdana;fontSize=12" parent="1" vertex="1">
                    <mxGeometry x="276" y="30" width="100" height="35" as="geometry"/>
                </mxCell>
                <mxCell id="7baba1c4bc27f4b0-42" value="&lt;font style=&quot;font-size: 10px;&quot; face=&quot;Tahoma&quot;&gt;External library&lt;br&gt;&lt;/font&gt;" style="shape=note;whiteSpace=wrap;html=1;size=14;verticalAlign=top;align=left;spacingTop=-6;rounded=0;shadow=0;comic=0;labelBackgroundColor=none;strokeWidth=1;fontFamily=Verdana;fontSize=12" parent="1" vertex="1">
                    <mxGeometry x="450" y="30" width="100" height="35" as="geometry"/>
                </mxCell>
                <mxCell id="7baba1c4bc27f4b0-43" value="&lt;font style=&quot;font-size: 10px;&quot; face=&quot;Tahoma&quot;&gt;Internal library&lt;br&gt;&lt;/font&gt;" style="shape=note;whiteSpace=wrap;html=1;size=14;verticalAlign=top;align=left;spacingTop=-6;rounded=0;shadow=0;comic=0;labelBackgroundColor=none;strokeWidth=1;fontFamily=Verdana;fontSize=12" parent="1" vertex="1">
                    <mxGeometry x="621" y="30" width="100" height="35" as="geometry"/>
                </mxCell>
                <mxCell id="4Fi33i3VNf01kXt7bkc9-8" style="edgeStyle=orthogonalEdgeStyle;rounded=0;orthogonalLoop=1;jettySize=auto;html=1;fontFamily=Tahoma;fontSize=10;entryX=0;entryY=0.092;entryDx=0;entryDy=0;entryPerimeter=0;" parent="1" source="7baba1c4bc27f4b0-9" target="4Fi33i3VNf01kXt7bkc9-4" edge="1">
                    <mxGeometry relative="1" as="geometry">
                        <mxPoint x="490" y="150" as="targetPoint"/>
                        <Array as="points">
                            <mxPoint x="210" y="151"/>
                            <mxPoint x="210" y="151"/>
                        </Array>
                    </mxGeometry>
                </mxCell>
                <mxCell id="4Fi33i3VNf01kXt7bkc9-11" value="&lt;div&gt;accrueInterest&lt;/div&gt;&lt;div&gt;(thresholdPrice, timeElapsed)&lt;/div&gt;" style="edgeLabel;html=1;align=center;verticalAlign=middle;resizable=0;points=[];fontSize=10;fontFamily=Tahoma;" parent="4Fi33i3VNf01kXt7bkc9-8" vertex="1" connectable="0">
                    <mxGeometry x="-0.0824" relative="1" as="geometry">
                        <mxPoint x="8" as="offset"/>
                    </mxGeometry>
                </mxCell>
                <mxCell id="4Fi33i3VNf01kXt7bkc9-10" style="edgeStyle=orthogonalEdgeStyle;rounded=0;orthogonalLoop=1;jettySize=auto;html=1;fontFamily=Tahoma;fontSize=10;dashed=1;endArrow=open;endFill=0;" parent="1" edge="1">
                    <mxGeometry relative="1" as="geometry">
                        <mxPoint x="492" y="253" as="sourcePoint"/>
                        <mxPoint x="157" y="253" as="targetPoint"/>
                        <Array as="points">
                            <mxPoint x="207" y="253"/>
                            <mxPoint x="207" y="253"/>
                        </Array>
                    </mxGeometry>
                </mxCell>
                <mxCell id="4Fi33i3VNf01kXt7bkc9-13" value="(newInflator, accruedInterest)" style="edgeLabel;html=1;align=center;verticalAlign=middle;resizable=0;points=[];fontSize=10;fontFamily=Tahoma;" parent="4Fi33i3VNf01kXt7bkc9-10" vertex="1" connectable="0">
                    <mxGeometry x="0.1284" y="-1" relative="1" as="geometry">
                        <mxPoint x="28" as="offset"/>
                    </mxGeometry>
                </mxCell>
                <mxCell id="4Fi33i3VNf01kXt7bkc9-17" style="edgeStyle=orthogonalEdgeStyle;rounded=0;orthogonalLoop=1;jettySize=auto;html=1;fontFamily=Tahoma;fontSize=10;endArrow=classic;endFill=1;" parent="1" edge="1">
                    <mxGeometry relative="1" as="geometry">
                        <mxPoint x="505" y="175" as="sourcePoint"/>
                        <mxPoint x="665" y="175" as="targetPoint"/>
                        <Array as="points">
                            <mxPoint x="550" y="175"/>
                            <mxPoint x="550" y="175"/>
                        </Array>
                    </mxGeometry>
                </mxCell>
                <mxCell id="4Fi33i3VNf01kXt7bkc9-18" value="mult()" style="edgeLabel;html=1;align=center;verticalAlign=middle;resizable=0;points=[];fontSize=10;fontFamily=Tahoma;" parent="4Fi33i3VNf01kXt7bkc9-17" vertex="1" connectable="0">
                    <mxGeometry x="-0.125" y="-3" relative="1" as="geometry">
                        <mxPoint x="8" y="-4" as="offset"/>
                    </mxGeometry>
                </mxCell>
                <mxCell id="4Fi33i3VNf01kXt7bkc9-20" value="&lt;div&gt;Scale Fenwick Tree with the new interest accrued&lt;/div&gt;&lt;div&gt;&lt;br&gt;&lt;/div&gt;&lt;div&gt;update scaling array state&lt;br&gt;&lt;/div&gt;" style="shape=note;whiteSpace=wrap;html=1;size=14;verticalAlign=top;align=left;spacingTop=-6;rounded=0;shadow=0;comic=0;labelBackgroundColor=none;strokeWidth=1;fontFamily=Verdana;fontSize=10;" parent="1" vertex="1">
                    <mxGeometry x="695" y="161" width="145" height="50" as="geometry"/>
                </mxCell>
                <mxCell id="4Fi33i3VNf01kXt7bkc9-22" style="edgeStyle=orthogonalEdgeStyle;rounded=0;orthogonalLoop=1;jettySize=auto;html=1;fontFamily=Verdana;fontSize=10;endArrow=open;endFill=0;exitX=-0.1;exitY=0.917;exitDx=0;exitDy=0;exitPerimeter=0;dashed=1;" parent="1" source="4Fi33i3VNf01kXt7bkc9-14" target="4Fi33i3VNf01kXt7bkc9-4" edge="1">
                    <mxGeometry relative="1" as="geometry">
                        <mxPoint x="510" y="215" as="targetPoint"/>
                        <Array as="points">
                            <mxPoint x="540" y="215"/>
                            <mxPoint x="540" y="215"/>
                        </Array>
                    </mxGeometry>
                </mxCell>
                <mxCell id="4Fi33i3VNf01kXt7bkc9-23" style="edgeStyle=orthogonalEdgeStyle;rounded=0;orthogonalLoop=1;jettySize=auto;html=1;fontFamily=Verdana;fontSize=10;endArrow=classic;endFill=1;" parent="1" source="7baba1c4bc27f4b0-9" edge="1">
                    <mxGeometry relative="1" as="geometry">
                        <mxPoint x="320" y="320" as="targetPoint"/>
                        <Array as="points">
                            <mxPoint x="190" y="320"/>
                            <mxPoint x="190" y="320"/>
                        </Array>
                    </mxGeometry>
                </mxCell>
                <mxCell id="4Fi33i3VNf01kXt7bkc9-24" value="&lt;div&gt;addQuoteToken&lt;/div&gt;&lt;div&gt;(AddQuoteParams)&lt;/div&gt;" style="edgeLabel;html=1;align=center;verticalAlign=middle;resizable=0;points=[];fontSize=10;fontFamily=Verdana;" parent="4Fi33i3VNf01kXt7bkc9-23" vertex="1" connectable="0">
                    <mxGeometry x="-0.1515" y="-2" relative="1" as="geometry">
                        <mxPoint x="9" y="-1" as="offset"/>
                    </mxGeometry>
                </mxCell>
                <mxCell id="4Fi33i3VNf01kXt7bkc9-26" style="edgeStyle=orthogonalEdgeStyle;rounded=0;orthogonalLoop=1;jettySize=auto;html=1;fontFamily=Verdana;fontSize=10;endArrow=classic;endFill=1;" parent="1" edge="1">
                    <mxGeometry relative="1" as="geometry">
                        <mxPoint x="335" y="395" as="sourcePoint"/>
                        <mxPoint x="664" y="395" as="targetPoint"/>
                        <Array as="points">
                            <mxPoint x="434" y="395"/>
                            <mxPoint x="434" y="395"/>
                        </Array>
                    </mxGeometry>
                </mxCell>
                <mxCell id="4Fi33i3VNf01kXt7bkc9-29" value="unscaledAdd()" style="edgeLabel;html=1;align=center;verticalAlign=middle;resizable=0;points=[];fontSize=10;fontFamily=Verdana;" parent="4Fi33i3VNf01kXt7bkc9-26" vertex="1" connectable="0">
                    <mxGeometry x="-0.0942" relative="1" as="geometry">
                        <mxPoint x="16" as="offset"/>
                    </mxGeometry>
                </mxCell>
                <mxCell id="4Fi33i3VNf01kXt7bkc9-27" value="&lt;div&gt;add amount in Fenwick Tree&lt;br&gt;&lt;/div&gt;&lt;div&gt;&lt;br&gt;&lt;/div&gt;&lt;div&gt;update values array state&lt;br&gt;&lt;/div&gt;" style="shape=note;whiteSpace=wrap;html=1;size=14;verticalAlign=top;align=left;spacingTop=-6;rounded=0;shadow=0;comic=0;labelBackgroundColor=none;strokeWidth=1;fontFamily=Verdana;fontSize=10;" parent="1" vertex="1">
                    <mxGeometry x="695" y="391" width="145" height="50" as="geometry"/>
                </mxCell>
                <mxCell id="4Fi33i3VNf01kXt7bkc9-32" style="edgeStyle=orthogonalEdgeStyle;rounded=0;orthogonalLoop=1;jettySize=auto;html=1;fontFamily=Verdana;fontSize=10;endArrow=open;endFill=0;dashed=1;exitX=0.45;exitY=0.795;exitDx=0;exitDy=0;exitPerimeter=0;" parent="1" edge="1">
                    <mxGeometry relative="1" as="geometry">
                        <mxPoint x="667.5" y="448.01" as="sourcePoint"/>
                        <mxPoint x="333" y="448" as="targetPoint"/>
                    </mxGeometry>
                </mxCell>
                <mxCell id="4Fi33i3VNf01kXt7bkc9-34" value="emit AddQuoteToken()" style="shape=note;whiteSpace=wrap;html=1;size=14;verticalAlign=top;align=left;spacingTop=-6;rounded=0;shadow=0;comic=0;labelBackgroundColor=none;strokeWidth=1;fontFamily=Verdana;fontSize=10;" parent="1" vertex="1">
                    <mxGeometry x="340" y="540" width="145" height="50" as="geometry"/>
                </mxCell>
                <mxCell id="4Fi33i3VNf01kXt7bkc9-35" style="edgeStyle=orthogonalEdgeStyle;rounded=0;orthogonalLoop=1;jettySize=auto;html=1;dashed=1;fontFamily=Verdana;fontSize=10;endArrow=open;endFill=0;" parent="1" edge="1">
                    <mxGeometry relative="1" as="geometry">
                        <mxPoint x="320" y="597" as="sourcePoint"/>
                        <mxPoint x="155" y="597" as="targetPoint"/>
                    </mxGeometry>
                </mxCell>
                <mxCell id="4Fi33i3VNf01kXt7bkc9-37" style="edgeStyle=orthogonalEdgeStyle;rounded=0;orthogonalLoop=1;jettySize=auto;html=1;entryX=0.1;entryY=0.05;entryDx=0;entryDy=0;entryPerimeter=0;fontFamily=Verdana;fontSize=10;endArrow=classic;endFill=1;" parent="1" edge="1">
                    <mxGeometry relative="1" as="geometry">
                        <Array as="points">
                            <mxPoint x="240" y="649"/>
                            <mxPoint x="240" y="649"/>
                        </Array>
                        <mxPoint x="155" y="649" as="sourcePoint"/>
                        <mxPoint x="496" y="649" as="targetPoint"/>
                    </mxGeometry>
                </mxCell>
                <mxCell id="4Fi33i3VNf01kXt7bkc9-39" value="&lt;div&gt;updateInterestState&lt;/div&gt;&lt;div&gt;(PoolState, LUP)&lt;br&gt;&lt;/div&gt;" style="edgeLabel;html=1;align=center;verticalAlign=middle;resizable=0;points=[];fontSize=10;fontFamily=Verdana;" parent="4Fi33i3VNf01kXt7bkc9-37" vertex="1" connectable="0">
                    <mxGeometry x="0.3959" y="-1" relative="1" as="geometry">
                        <mxPoint x="-73" as="offset"/>
                    </mxGeometry>
                </mxCell>
                <mxCell id="4Fi33i3VNf01kXt7bkc9-38" style="edgeStyle=orthogonalEdgeStyle;rounded=0;orthogonalLoop=1;jettySize=auto;html=1;dashed=1;fontFamily=Verdana;fontSize=10;endArrow=open;endFill=0;exitX=0.1;exitY=0.917;exitDx=0;exitDy=0;exitPerimeter=0;" parent="1" edge="1">
                    <mxGeometry relative="1" as="geometry">
                        <mxPoint x="496" y="733.04" as="sourcePoint"/>
                        <mxPoint x="155" y="733" as="targetPoint"/>
                        <Array as="points"/>
                    </mxGeometry>
                </mxCell>
                <mxCell id="4Fi33i3VNf01kXt7bkc9-40" value="&lt;div&gt;update EMAs state&lt;/div&gt;&lt;div&gt;&lt;br&gt;&lt;/div&gt;&lt;div&gt;update interestRate and interestRateUpdate time&lt;br&gt;&lt;/div&gt;&lt;div&gt;&lt;br&gt;&lt;/div&gt;&lt;div&gt;emit UpdateInterestRate()&lt;br&gt;&lt;/div&gt;" style="shape=note;whiteSpace=wrap;html=1;size=14;verticalAlign=top;align=left;spacingTop=-6;rounded=0;shadow=0;comic=0;labelBackgroundColor=none;strokeWidth=1;fontFamily=Verdana;fontSize=10;" parent="1" vertex="1">
                    <mxGeometry x="510" y="650" width="145" height="90" as="geometry"/>
                </mxCell>
                <mxCell id="4Fi33i3VNf01kXt7bkc9-41" value="&lt;div&gt;update inflator&lt;/div&gt;&lt;div&gt;update inflatorUpdate time&lt;br&gt;&lt;/div&gt;" style="shape=note;whiteSpace=wrap;html=1;size=14;verticalAlign=top;align=left;spacingTop=-6;rounded=0;shadow=0;comic=0;labelBackgroundColor=none;strokeWidth=1;fontFamily=Verdana;fontSize=10;" parent="1" vertex="1">
                    <mxGeometry x="165" y="770" width="145" height="30" as="geometry"/>
                </mxCell>
                <mxCell id="GGHJqRlNR0MMw1HJwWjB-1" value="(bucketLPs_, lup_)" style="edgeLabel;html=1;align=center;verticalAlign=middle;resizable=0;points=[];fontSize=10;fontFamily=Verdana;" parent="1" vertex="1" connectable="0">
                    <mxGeometry x="237.5" y="590" as="geometry"/>
                </mxCell>
                <mxCell id="19" value="Buckets" style="shape=umlLifeline;perimeter=lifelinePerimeter;whiteSpace=wrap;html=1;container=1;collapsible=0;recursiveResize=0;outlineConnect=0;rounded=1;shadow=0;comic=0;labelBackgroundColor=none;strokeWidth=1;fontFamily=Verdana;fontSize=12;align=center;" vertex="1" parent="1">
                    <mxGeometry x="860" y="80" width="100" height="680" as="geometry"/>
                </mxCell>
                <mxCell id="21" value="" style="html=1;points=[];perimeter=orthogonalPerimeter;rounded=0;shadow=0;comic=0;labelBackgroundColor=none;strokeWidth=1;fontFamily=Verdana;fontSize=12;align=center;" vertex="1" parent="19">
                    <mxGeometry x="45" y="250" width="10" height="50" as="geometry"/>
                </mxCell>
                <mxCell id="27" value="" style="html=1;points=[];perimeter=orthogonalPerimeter;rounded=0;shadow=0;comic=0;labelBackgroundColor=none;strokeWidth=1;fontFamily=Verdana;fontSize=12;align=center;" vertex="1" parent="19">
                    <mxGeometry x="45" y="400" width="10" height="50" as="geometry"/>
                </mxCell>
                <mxCell id="22" value="&lt;font style=&quot;font-size: 10px;&quot; face=&quot;Tahoma&quot;&gt;Internal library&lt;br&gt;&lt;/font&gt;" style="shape=note;whiteSpace=wrap;html=1;size=14;verticalAlign=top;align=left;spacingTop=-6;rounded=0;shadow=0;comic=0;labelBackgroundColor=none;strokeWidth=1;fontFamily=Verdana;fontSize=12" vertex="1" parent="1">
                    <mxGeometry x="861" y="30" width="100" height="35" as="geometry"/>
                </mxCell>
                <mxCell id="23" style="edgeStyle=orthogonalEdgeStyle;rounded=0;orthogonalLoop=1;jettySize=auto;html=1;fontFamily=Verdana;fontSize=10;endArrow=classic;endFill=1;exitX=1.2;exitY=0.188;exitDx=0;exitDy=0;exitPerimeter=0;" edge="1" parent="1" source="7baba1c4bc27f4b0-10">
                    <mxGeometry relative="1" as="geometry">
                        <mxPoint x="388" y="340" as="sourcePoint"/>
                        <mxPoint x="898" y="340" as="targetPoint"/>
                        <Array as="points"/>
                    </mxGeometry>
                </mxCell>
                <mxCell id="24" value="quoteTokensToLP&lt;br&gt;(collateral, lps, bucketDeposit, addedAmount, bucketPrice)" style="edgeLabel;html=1;align=center;verticalAlign=middle;resizable=0;points=[];fontSize=10;fontFamily=Verdana;" vertex="1" connectable="0" parent="23">
                    <mxGeometry x="-0.0942" relative="1" as="geometry">
                        <mxPoint x="75" as="offset"/>
                    </mxGeometry>
                </mxCell>
                <mxCell id="25" style="edgeStyle=orthogonalEdgeStyle;rounded=0;orthogonalLoop=1;jettySize=auto;html=1;fontFamily=Verdana;fontSize=10;endArrow=open;endFill=0;dashed=1;exitX=0.45;exitY=0.795;exitDx=0;exitDy=0;exitPerimeter=0;entryX=1.2;entryY=0.281;entryDx=0;entryDy=0;entryPerimeter=0;" edge="1" parent="1" target="7baba1c4bc27f4b0-10">
                    <mxGeometry relative="1" as="geometry">
                        <mxPoint x="894.5" y="370.01" as="sourcePoint"/>
                        <mxPoint x="560" y="370" as="targetPoint"/>
                    </mxGeometry>
                </mxCell>
                <mxCell id="26" value="bucketLps_" style="edgeLabel;html=1;align=center;verticalAlign=middle;resizable=0;points=[];" vertex="1" connectable="0" parent="25">
                    <mxGeometry x="0.1701" y="3" relative="1" as="geometry">
                        <mxPoint x="44" y="-4" as="offset"/>
                    </mxGeometry>
                </mxCell>
                <mxCell id="4Fi33i3VNf01kXt7bkc9-31" value="&lt;div&gt;increment bucket.lps&lt;/div&gt;&lt;div&gt;increment lender.lps&lt;/div&gt;&lt;div&gt;save lender.depositTime&lt;br&gt;&lt;/div&gt;" style="shape=note;whiteSpace=wrap;html=1;size=14;verticalAlign=top;align=left;spacingTop=-6;rounded=0;shadow=0;comic=0;labelBackgroundColor=none;strokeWidth=1;fontFamily=Verdana;fontSize=10;" parent="1" vertex="1">
                    <mxGeometry x="930" y="480" width="145" height="50" as="geometry"/>
                </mxCell>
                <mxCell id="34" style="edgeStyle=orthogonalEdgeStyle;rounded=0;orthogonalLoop=1;jettySize=auto;html=1;fontFamily=Verdana;fontSize=10;endArrow=classic;endFill=1;exitX=1.4;exitY=0.7;exitDx=0;exitDy=0;exitPerimeter=0;entryX=0.1;entryY=0.22;entryDx=0;entryDy=0;entryPerimeter=0;" edge="1" parent="1" target="27">
                    <mxGeometry relative="1" as="geometry">
                        <mxPoint x="335" y="491" as="sourcePoint"/>
                        <mxPoint x="905" y="492" as="targetPoint"/>
                        <Array as="points"/>
                    </mxGeometry>
                </mxCell>
                <mxCell id="35" value="addLenderLp&lt;br&gt;(bucket, bankruptcyTime, msg.sender, bucketLPs_)" style="edgeLabel;html=1;align=center;verticalAlign=middle;resizable=0;points=[];fontSize=10;fontFamily=Verdana;" vertex="1" connectable="0" parent="34">
                    <mxGeometry x="-0.0942" relative="1" as="geometry">
                        <mxPoint x="56" as="offset"/>
                    </mxGeometry>
                </mxCell>
                <mxCell id="36" style="edgeStyle=orthogonalEdgeStyle;rounded=0;orthogonalLoop=1;jettySize=auto;html=1;fontFamily=Verdana;fontSize=10;endArrow=open;endFill=0;dashed=1;exitX=-0.3;exitY=0.78;exitDx=0;exitDy=0;exitPerimeter=0;" edge="1" parent="1" source="27">
                    <mxGeometry relative="1" as="geometry">
                        <mxPoint x="667.25" y="520.01" as="sourcePoint"/>
                        <mxPoint x="332.75" y="520" as="targetPoint"/>
                    </mxGeometry>
                </mxCell>
            </root>
        </mxGraphModel>
    </diagram>
</mxfile>